HIERARCHY
ROOT Hips
{
  OFFSET 0 89.5177 0.535
  CHANNELS 6 Xposition Yposition Zposition Zrotation Xrotation Yrotation
  JOINT Spine
  {
    OFFSET 12.0259 -0.162855 1.69034e-005
    CHANNELS 3 Zrotation Xrotation Yrotation
    JOINT Spine1
    {
      OFFSET 15.3169 -0.0121922 0
      CHANNELS 3 Zrotation Xrotation Yrotation
      JOINT Spine2
      {
        OFFSET 15.3176 -0.0121908 0
        CHANNELS 3 Zrotation Xrotation Yrotation
        JOINT Neck
        {
          OFFSET 19.9142 1.56338 0
          CHANNELS 3 Zrotation Xrotation Yrotation
          JOINT Head
          {
            OFFSET 6.92651 0 0
            CHANNELS 3 Zrotation Xrotation Yrotation
            End Site
            {
              OFFSET 20.7666 0 0
            }
          }
          JOINT LeftShoulder
          {
            OFFSET -6.20654 0.708824 7.28219
            CHANNELS 3 Zrotation Xrotation Yrotation
            JOINT LeftArm
            {
              OFFSET 14.108 0 -1.52588e-005
              CHANNELS 3 Zrotation Xrotation Yrotation
              JOINT LeftForeArm
              {
                OFFSET 28.5802 0 0
                CHANNELS 3 Zrotation Xrotation Yrotation
                JOINT LeftHand
                {
                  OFFSET 27.092 0 0
                  CHANNELS 3 Zrotation Xrotation Yrotation
                  End Site
                  {
                    OFFSET 9.55928 -0.186424 0.145352
                  }
                }
              }
            }
          }
          JOINT RightShoulder
          {
            OFFSET -6.20654 0.708866 -7.28218
            CHANNELS 3 Zrotation Xrotation Yrotation
            JOINT RightArm
            {
              OFFSET 14.108 0 1.52588e-005
              CHANNELS 3 Zrotation Xrotation Yrotation
              JOINT RightForeArm
              {
                OFFSET 28.5802 0 0
                CHANNELS 3 Zrotation Xrotation Yrotation
                JOINT RightHand
                {
                  OFFSET 27.092 0 0
                  CHANNELS 3 Zrotation Xrotation Yrotation
                  End Site
                  {
                    OFFSET 9.55929 -0.186417 -0.145354
                  }
                }
              }
            }
          }
        }
      }
    }
  }
  JOINT LeftUpLeg
  {
    OFFSET 0.005 -0.535 8.837
    CHANNELS 3 Zrotation Xrotation Yrotation
    JOINT LeftLeg
    {
      OFFSET 39.9035 0 0
      CHANNELS 3 Zrotation Xrotation Yrotation
      JOINT LeftFoot
      {
        OFFSET 39.6689 0 0
        CHANNELS 3 Zrotation Xrotation Yrotation
        JOINT LeftToe
        {
          OFFSET 10.1624 13.6296 0
          CHANNELS 3 Zrotation Xrotation Yrotation
          End Site
          {
            OFFSET 8.38147 0 0
          }
        }
      }
    }
  }
  JOINT RightUpLeg
  {
    OFFSET 0.005 -0.535 -8.837
    CHANNELS 3 Zrotation Xrotation Yrotation
    JOINT RightLeg
    {
      OFFSET 39.9035 0 0
      CHANNELS 3 Zrotation Xrotation Yrotation
      JOINT RightFoot
      {
        OFFSET 39.6689 0 0
        CHANNELS 3 Zrotation Xrotation Yrotation
        JOINT RightToe
        {
          OFFSET 10.1624 13.6296 0
          CHANNELS 3 Zrotation Xrotation Yrotation
          End Site
          {
            OFFSET 8.38147 0 0
          }
        }
      }
    }
  }
}
MOTION
Frames:	19
Frame Time:	0.0333333
457.508 88.8378 26.8212 145.563 -82.2985 55.4431 -0.952619 -0.878897 0.805837 -1.89312 -1.77052 1.59741 -1.89312 -1.77052 1.59741 -8.30728e-012 -9.0191e-006 -5.27751e-005 -12.1076 24.0367 1.81616 179.957 -9.17508 -90.2722 99.2253 -75.3667 87.7025 -0.766005 -7.95139e-016 6.36111e-015 -40.2333 -22.9861 -39.8442 179.695 3.30484 95.2836 62.8871 61.506 -52.6046 -19.8765 0 -3.18055e-015 -35.9533 33.4532 43.6803 -6.0185 3.23692 -179.229 -16.0097 -1.59028e-015 -7.95139e-016 19.3689 12.6038 -8.19632 90 2.23633e-016 2.38542e-015 -4.61761 -4.38999 -177.683 -13.67 2.48481e-017 -1.00635e-015 15.4736 -9.12262 5.62736 90 3.60297e-015 -0 
457.475 88.8361 26.8115 146.075 -82.2233 55.9515 -0.973291 -0.878287 0.799881 -1.93457 -1.76949 1.58519 -1.93457 -1.76949 1.58518 -8.30708e-012 -9.0191e-006 -5.27751e-005 -12.2276 22.1745 1.37326 179.959 -9.17856 -90.2592 98.6824 -75.3115 87.1493 -0.745095 3.97569e-016 -3.18055e-015 -40.2897 -23.045 -39.899 179.695 3.31417 95.2685 62.9901 61.5132 -52.6916 -19.9389 -3.18055e-015 -0 -36.5348 33.2665 44.0626 -6.1436 3.32235 -179.235 -16.0767 3.18055e-015 -0 19.4453 12.6807 -8.23993 90 0 -0 -4.72266 -4.41765 -177.712 -13.6944 -7.45443e-017 1.61513e-016 15.5069 -9.16514 5.65949 90 -5.46658e-016 -3.18055e-015 
457.45 88.8342 26.7979 146.588 -82.1848 56.4454 -0.98791 -0.87436 0.794155 -1.96394 -1.76236 1.57357 -1.96394 -1.76236 1.57356 -8.30728e-012 -9.0191e-006 -5.27751e-005 -12.2784 20.6277 1.01545 179.958 -9.17078 -90.2603 98.18 -75.279 86.6728 -0.735025 3.97569e-016 -0 -40.1477 -23.1648 -39.8415 179.693 3.31453 95.301 63.0864 61.4516 -52.8356 -20.0086 -6.36111e-015 4.77083e-015 -36.9395 33.1378 44.3551 -6.21954 3.39601 -179.232 -16.1229 0 -0 19.5077 12.7209 -8.25175 90 -2.36057e-015 -0 -4.78066 -4.41334 -177.715 -13.6845 -4.96962e-017 2.54693e-016 15.5072 -9.19004 5.69699 90 1.54058e-015 -1.59028e-015 
457.42 88.833 26.7884 147.058 -82.1951 56.8955 -0.992478 -0.87135 0.791609 -1.97305 -1.75578 1.57358 -1.97305 -1.75578 1.57357 -8.30768e-012 -9.0191e-006 -5.27751e-005 -12.0949 19.3541 0.494791 179.955 -9.20157 -90.2782 97.7914 -75.1959 86.3898 -0.860946 -7.95139e-016 -0 -39.8207 -23.4449 -39.8867 179.691 3.27704 95.3956 63.1633 61.3549 -52.9763 -20.1164 3.18055e-015 -3.18055e-015 -36.9958 33.0023 44.3659 -6.23834 3.43653 -179.229 -16.142 0 3.97569e-016 19.5396 12.7173 -8.22784 90 2.98177e-016 7.95139e-016 -4.79779 -4.37694 -177.717 -13.669 -7.45443e-017 7.20595e-016 15.4983 -9.20243 5.72503 90 2.28602e-015 -1.59028e-015 
457.397 88.8325 26.7771 147.406 -82.2242 57.2283 -0.992856 -0.872745 0.789338 -1.97413 -1.74911 1.56397 -1.97413 -1.74911 1.56396 -8.30688e-012 -9.0191e-006 -5.27751e-005 -11.7484 18.2111 0.14245 179.949 -9.21092 -90.3206 98.1482 -75.1425 86.8235 -0.806295 0 -6.36111e-015 -39.9031 -23.1525 -39.6373 179.687 3.29176 95.434 63.0516 61.2857 -52.9856 -20.2688 3.18055e-015 -3.18055e-015 -36.8746 32.9421 44.1862 -6.2133 3.4534 -179.235 -16.1219 0 -0 19.5348 12.674 -8.18582 90 6.95746e-016 -7.95139e-016 -4.77942 -4.32453 -177.714 -13.6303 -1.2424e-016 -1.61513e-016 15.4677 -9.18571 5.73315 90 -4.96962e-017 -1.59028e-015 
457.373 88.8324 26.7722 147.444 -82.2255 57.2398 -0.995939 -0.875077 0.785255 -1.98014 -1.76313 1.55564 -1.98014 -1.76313 1.55563 -8.30788e-012 -9.0191e-006 -5.27751e-005 -11.2225 17.1225 -0.202249 179.941 -9.20757 -90.3662 97.2519 -75.0399 86.0284 -0.854795 -7.95139e-016 3.18055e-015 -39.8965 -23.2084 -39.5779 179.683 3.30473 95.4801 62.8967 61.1082 -52.9364 -20.5254 -3.18055e-015 -7.95139e-015 -36.6193 32.901 43.9598 -6.1899 3.3391 -179.245 -16.0828 7.95139e-016 -3.97569e-016 19.483 12.5811 -8.09351 90 -6.70898e-016 -0 -4.75401 -4.32013 -177.704 -13.5767 -1.2424e-016 1.05604e-016 15.4045 -9.18461 5.77577 90 -7.20594e-016 3.18055e-015 
457.355 88.8324 26.7516 147.609 -82.2602 57.377 -1.00325 -0.876971 0.779069 -1.99484 -1.7669 1.54312 -1.99484 -1.7669 1.54311 -8.30768e-012 -9.0191e-006 -5.27751e-005 -10.5361 15.9426 -0.473072 179.93 -9.24607 -90.4363 96.9888 -74.9459 85.8884 -0.937255 7.95139e-016 -0 -39.7549 -23.1654 -39.4593 179.674 3.35551 95.5461 62.8613 60.9679 -53.0338 -20.7632 0 -7.95139e-015 -36.3525 32.7639 43.626 -6.13529 3.32207 -179.242 -16.0524 -3.18055e-015 -3.97569e-016 19.4676 12.5249 -8.04338 90 9.19379e-016 -7.95139e-016 -4.68442 -4.25823 -177.681 -13.486 -4.96962e-017 -7.0817e-016 15.3375 -9.14231 5.79075 90 2.98177e-016 -0 
457.336 88.8321 26.7333 147.791 -82.3081 57.5344 -1.00848 -0.879436 0.769632 -2.00539 -1.77299 1.52411 -2.00539 -1.77299 1.5241 -8.30728e-012 -9.0191e-006 -5.27751e-005 -9.67239 14.8351 -0.751822 179.92 -9.29973 -90.4953 96.9989 -74.8843 85.973 -0.993944 0 -3.18055e-015 -39.6429 -23.063 -39.3261 179.668 3.3896 95.5971 62.8927 60.908 -53.1453 -20.885 3.18055e-015 4.77083e-015 -36.0645 32.8029 43.378 -6.08767 3.28888 -179.233 -16.0431 0 -7.95139e-016 19.4657 12.4909 -8.00447 90 -1.21756e-015 -0 -4.63183 -4.24013 -177.673 -13.4503 4.96962e-017 4.96962e-017 15.3127 -9.15763 5.83874 90 -2.45996e-015 3.18055e-015 
457.317 88.8316 26.7192 147.911 -82.3479 57.6357 -1.01112 -0.882188 0.757533 -2.01064 -1.78045 1.4998 -2.01064 -1.78045 1.49979 -8.30768e-012 -9.0191e-006 -5.27751e-005 -8.71124 13.6771 -0.977591 179.912 -9.35813 -90.5405 97.0639 -74.8456 86.06 -1.04381 -3.97569e-016 -3.18055e-015 -39.5513 -22.9932 -39.1925 179.662 3.41962 95.6564 62.9799 60.8299 -53.2283 -20.8987 0 3.18055e-015 -35.7569 32.7653 43.0635 -6.0565 3.36245 -179.221 -16.0534 3.18055e-015 3.97569e-016 19.4687 12.4945 -7.99979 90 1.3418e-015 1.59028e-015 -4.59542 -4.24569 -177.671 -13.4413 4.96962e-017 -3.97569e-016 15.3117 -9.18706 5.88525 90 -1.04362e-015 -1.59028e-015 
457.296 88.8319 26.7098 148.218 -82.3906 57.95 -1.0139 -0.884429 0.737048 -2.01666 -1.78254 1.45878 -2.01666 -1.78254 1.45877 -8.30768e-012 -9.0191e-006 -5.27751e-005 -7.53608 12.5117 -1.24101 179.907 -9.40334 -90.5662 96.9545 -74.8005 85.8911 -1.15324 -1.59028e-015 -6.36111e-015 -39.459 -22.9809 -39.1737 179.66 3.44639 95.6338 62.9566 60.7636 -53.1164 -20.8971 3.18055e-015 1.59028e-015 -35.5248 32.7762 42.8873 -5.9922 3.33802 -179.253 -15.9757 0 -0 19.3722 12.4195 -7.96978 90 -2.06239e-015 -0 -4.59952 -4.23585 -177.704 -13.4797 0 -9.19379e-016 15.3287 -9.24842 5.93605 90 -1.98785e-016 -0 
457.262 88.8364 26.7193 148.424 -82.4216 58.1356 -1.0192 -0.885354 0.726649 -2.02745 -1.78296 1.43787 -2.02745 -1.78296 1.43787 -8.30788e-012 -9.0191e-006 -5.27751e-005 -6.17514 11.2356 -1.52381 179.915 -9.47634 -90.515 96.9476 -74.8205 85.8113 -1.1768 7.95139e-016 -0 -39.5579 -22.9035 -39.2138 179.657 3.46491 95.6511 63.2146 60.7343 -53.2144 -20.834 6.36111e-015 -1.59028e-015 -35.5724 32.7022 42.8318 -5.99835 3.39676 -179.251 -16.0137 -7.95139e-016 3.97569e-016 19.4115 12.4513 -7.97725 90 -9.69075e-016 -3.18055e-015 -4.5762 -4.20098 -177.713 -13.4307 0 2.48481e-017 15.2771 -9.25125 5.9799 90 -1.11816e-015 -0 
457.199 88.8442 26.7598 149.012 -82.4671 58.8276 -1.02374 -0.882323 0.699845 -2.03698 -1.77648 1.38424 -2.03698 -1.77648 1.38423 -8.30768e-012 -9.0191e-006 -5.27751e-005 -4.63421 10.073 -1.92657 179.935 -9.56522 -90.3935 96.7408 -74.8154 85.4495 -1.22232 1.19271e-015 6.36111e-015 -39.5382 -22.7731 -39.0246 179.655 3.47198 95.6751 63.2475 60.6384 -53.0949 -20.7591 3.18055e-015 -1.59028e-015 -35.615 32.8344 42.9203 -5.95906 3.45381 -179.4 -15.8802 3.18055e-015 1.19271e-015 19.2147 12.4023 -8.03623 90 2.75814e-015 1.59028e-015 -4.71722 -4.18132 -177.893 -13.642 -1.49089e-016 3.72721e-016 15.4382 -9.37571 5.97967 90 -2.73329e-016 -1.59028e-015 
457.045 88.8829 26.8165 148.837 -82.4831 59.1176 -1.01125 -0.899231 0.598659 -2.01342 -1.80838 1.18175 -2.01342 -1.80838 1.18174 -8.30708e-012 -9.0191e-006 -5.27751e-005 -3.03938 9.22369 -2.48382 179.954 -9.80056 -90.2722 97.6969 -74.7619 86.3504 -1.32009 2.38542e-015 9.54166e-015 -39.5654 -22.6849 -38.99 179.659 3.48521 95.5921 63.2488 60.5626 -52.9309 -20.6784 0 1.59028e-015 -35.5235 32.9483 42.8909 -5.63344 3.23396 -179.921 -15.1374 0 -0 18.319 12.3123 -8.58803 90 1.3418e-015 -7.95139e-016 -4.81394 -3.86535 -178.485 -13.7568 1.86361e-016 -2.48481e-016 15.4577 -9.26428 5.73498 90 3.47873e-016 -3.18055e-015 
456.734 89.0084 26.9224 144.092 -82.0155 55.3299 -1.0043 -1.03086 0.372603 -2.00237 -2.06761 0.727434 -2.00237 -2.06761 0.727425 -8.30768e-012 -9.0191e-006 -5.27751e-005 -1.54746 8.41095 -2.97067 179.971 -9.76242 -90.1691 98.1648 -74.7164 86.641 -1.26714 -7.95139e-016 -0 -39.6656 -22.4245 -38.7777 179.658 3.64571 95.3614 63.2824 60.3377 -52.7632 -20.5775 -3.18055e-015 1.59028e-015 -35.6073 33.095 42.9336 -4.98028 1.45766 179.089 -13.2404 7.95139e-016 3.97569e-016 16.3108 12.2808 -10.1037 90 -7.70291e-016 2.38542e-015 -4.43304 -3.32882 -179.527 -12.769 -1.98785e-016 -4.96962e-017 14.6139 -8.25199 4.96522 90 9.19379e-016 3.18055e-015 
456.322 89.1961 27.1276 136.906 -80.8083 49.2471 -1.02629 -1.23754 0.0943364 -2.05125 -2.47611 0.166722 -2.05125 -2.47611 0.166713 -8.30669e-012 -9.0191e-006 -5.27751e-005 -0.269712 7.40642 -3.32435 179.983 -9.48507 -90.1056 97.4655 -74.6178 86.0564 -1.14573 1.98785e-015 6.36111e-015 -39.705 -22.3593 -38.8151 179.646 4.03237 95.0204 63.6108 60.0537 -52.6493 -20.2962 -3.18055e-015 3.18055e-015 -35.6728 33.4285 43.0525 -4.90317 -2.24356 178.257 -11.4812 0 -0 14.5712 13.5386 -13.0634 90 -8.69683e-016 -1.59028e-015 -2.72358 -3.00336 179.533 -8.86014 -7.95139e-016 4.96962e-016 12.7446 -6.56694 2.4708 90 5.96354e-016 -1.59028e-015 
455.905 89.3611 27.3751 133.538 -79.8437 46.5687 -1.03911 -1.31287 -0.0755909 -2.08077 -2.62368 -0.174878 -2.08077 -2.62368 -0.174887 -8.30748e-012 -9.0191e-006 -5.27751e-005 0.846658 6.60938 -3.63025 -179.996 -9.20681 -89.9731 96.025 -74.4288 84.9628 -1.01217 0 -0 -39.5057 -22.3664 -38.7375 179.65 4.11715 94.8598 64.6087 59.9916 -52.7136 -19.6425 3.18055e-015 -3.18055e-015 -35.8604 33.8339 43.3807 -4.69982 -5.81619 178.171 -9.24539 0 9.93923e-017 12.9348 14.1602 -15.1091 90 5.26779e-015 1.59028e-015 0.402077 -2.89692 178.952 -1.89245 -7.95139e-016 -9.93923e-017 9.24906 -5.39228 0.711409 90 -2.23633e-016 -3.18055e-015 
455.603 89.4255 27.5579 134.831 -79.7562 47.9359 -1.01683 -1.21976 -0.0961305 -2.03639 -2.43716 -0.213792 -2.03639 -2.43716 -0.213802 -8.30708e-012 -9.0191e-006 -5.27751e-005 1.69795 6.23468 -4.011 -179.981 -9.20305 -89.8822 94.8658 -74.1952 84.0423 -0.989891 -7.95139e-016 -0 -39.1603 -22.3461 -38.5203 179.66 3.97871 94.8895 65.5398 60.1688 -53.038 -18.9116 3.18055e-015 -0 -36.1768 34.1481 43.9352 -4.0419 -6.02744 179.098 -6.73948 9.93923e-017 2.48481e-016 12.6771 12.4246 -13.753 90 1.06847e-015 -1.59028e-015 1.00108 -2.6896 178.724 1.88993e-006 7.95139e-016 4.96962e-016 8.19311 -5.19997 0.436218 90 5.09386e-016 1.59028e-015 
455.358 89.3825 27.7193 137.761 -79.9956 50.5695 -0.998663 -1.15069 -0.036443 -1.99866 -2.30011 -0.0927903 -1.99866 -2.30011 -0.0927996 -8.30788e-012 -9.0191e-006 -5.27751e-005 2.42273 6.55894 -4.1757 -179.953 -9.51134 -89.7179 95.2325 -74.3257 84.2123 -0.986841 1.39149e-015 -0 -39.0283 -22.4083 -38.5173 179.674 3.77006 94.9475 65.6753 60.1439 -53.4027 -18.9187 0 1.59028e-015 -36.1806 34.3315 44.0806 -4.87836 -2.61248 -179.419 -7.21469 0 8.94531e-016 14.254 11.7615 -12.6265 90 -1.98785e-016 -3.18055e-015 -0.711162 -2.78744 178.705 -2.74194 7.95139e-016 -1.98785e-016 9.41305 -5.72138 1.10631 90 3.97569e-016 -0 
454.994 89.2934 27.8645 139.186 -80.1337 51.5375 -0.928764 -1.14583 0.0189055 -1.8577 -2.29135 0.0194149 -1.8577 -2.29135 0.0194056 -8.30828e-012 -9.0191e-006 -5.27751e-005 2.59862 6.77639 -3.94767 -179.955 -9.61975 -89.731 97.1531 -74.5125 85.6098 -1.00803 -1.98785e-016 -9.54166e-015 -39.4757 -21.9567 -38.3788 179.687 3.76832 94.7482 65.1404 59.8119 -53.5981 -19.6268 3.18055e-015 -6.36111e-015 -35.5963 34.3792 43.4813 -5.48332 0.547332 -177.734 -7.15806 7.95139e-016 3.97569e-016 13.7478 11.8184 -12.6744 90 -6.95746e-016 -7.95139e-016 -2.69639 -3.18058 178.725 -6.36308 3.97569e-016 2.98177e-016 11.1335 -6.32805 1.92246 90 -6.21202e-016 -3.18055e-015 
